<?xml version="1.0" standalone="no"?>
<!DOCTYPE svg PUBLIC "-//W3C//DTD SVG 20010904//EN"
 "http://www.w3.org/TR/2001/REC-SVG-20010904/DTD/svg10.dtd">
<svg version="1.0" xmlns="http://www.w3.org/2000/svg"
 width="300.000000pt" height="300.000000pt" viewBox="0 0 300.000000 300.000000"
 preserveAspectRatio="xMidYMid meet">
<metadata>
Created by potrace 1.10, written by Peter Selinger 2001-2011
</metadata>
<g transform="translate(0.000000,300.000000) scale(0.100000,-0.100000)"
fill="#000000" stroke="none">
<path d="M1045 2213 c-68 -35 -114 -104 -115 -170 l0 -33 324 0 325 0 -9 30
-9 30 50 0 c42 0 55 -5 87 -34 32 -30 37 -40 37 -80 0 -64 -42 -107 -112 -113
l-48 -5 0 -79 0 -79 49 0 c40 0 55 5 83 30 52 46 111 36 139 -24 15 -31 15
-36 0 -66 -13 -28 -14 -39 -4 -66 9 -25 9 -42 -1 -74 -17 -56 -57 -80 -136
-80 -59 0 -62 -1 -103 -45 -35 -37 -48 -45 -78 -45 -32 0 -47 10 -121 82 -46
45 -86 91 -89 103 -5 19 -11 20 -142 17 -157 -4 -204 5 -227 46 -14 25 -15 21
-13 -79 3 -98 5 -109 33 -154 19 -30 45 -56 70 -69 38 -20 54 -21 410 -21 354
0 372 1 415 21 100 46 160 142 160 257 0 104 -48 197 -125 243 l-42 24 29 56
c31 63 38 145 16 216 -16 55 -83 126 -143 154 -49 23 -55 24 -365 24 -268 -1
-320 -3 -345 -17z m305 -26 c-1 -37 -73 -57 -157 -42 -33 6 -52 33 -31 46 20
13 188 9 188 -4z m376 -3 c62 -26 102 -63 130 -120 34 -69 30 -141 -11 -230
-28 -61 -29 -62 -75 -66 -26 -3 -59 -14 -77 -27 -17 -13 -41 -21 -54 -19 -20
2 -24 9 -24 37 0 35 5 40 63 62 81 30 115 147 63 216 -30 40 -73 61 -131 64
-25 2 -56 11 -69 21 -13 10 -34 18 -47 18 -22 0 -54 23 -54 39 0 18 19 21 130
21 85 0 128 -4 156 -16z m-601 -59 c0 -43 -3 -50 -20 -50 -15 0 -21 8 -23 29
-5 45 6 78 26 74 13 -3 17 -14 17 -53z m290 0 c0 -43 -3 -50 -20 -50 -15 0
-21 8 -23 29 -5 45 6 78 26 74 13 -3 17 -14 17 -53z m-355 -22 c0 -14 7 -35
17 -45 15 -17 14 -18 -23 -18 -67 0 -85 9 -82 39 4 39 17 51 54 51 30 0 34 -3
34 -27z m290 0 c0 -14 7 -35 17 -45 16 -17 11 -18 -117 -18 -128 0 -133 1
-117 18 10 10 17 31 17 45 l0 27 100 0 100 0 0 -27z m187 3 c27 -24 28 -24 9
-45 -15 -17 -31 -21 -79 -21 -58 0 -59 1 -44 18 10 10 17 31 17 45 0 24 4 27
34 27 22 0 45 -9 63 -24z m353 -383 c117 -106 134 -264 41 -374 -51 -61 -102
-79 -236 -85 l-116 -4 17 22 c36 47 86 82 121 85 61 4 102 23 130 60 25 33 27
43 29 152 3 120 -8 161 -41 161 -16 0 -20 12 -8 23 9 9 4 12 63 -40z m-747
-253 c118 0 139 -2 151 -17 8 -10 49 -54 90 -99 42 -44 76 -83 76 -86 0 -3
-84 -3 -187 -1 -130 4 -196 9 -214 19 -40 20 -77 70 -84 112 -3 20 -8 48 -11
61 -4 21 -2 23 18 17 13 -3 85 -6 161 -6z"/>
<path d="M1144 1916 c-3 -8 -4 -27 -2 -43 3 -25 7 -28 46 -31 l43 -3 -3 43
c-3 42 -4 43 -41 46 -26 2 -39 -1 -43 -12z"/>
<path d="M1277 1924 c-4 -4 -7 -25 -7 -46 l0 -39 43 3 c42 3 42 3 42 43 0 39
-1 40 -35 43 -20 2 -39 0 -43 -4z"/>
<path d="M1397 1924 c-4 -4 -7 -25 -7 -46 l0 -39 43 3 c42 3 42 3 42 43 0 39
-1 40 -35 43 -20 2 -39 0 -43 -4z"/>
<path d="M1022 1768 c3 -43 3 -43 43 -43 40 0 40 0 43 43 l3 42 -46 0 -46 0 3
-42z"/>
<path d="M1149 1805 c0 -3 -1 -18 -1 -35 0 -16 1 -35 1 -41 1 -6 17 -9 39 -7
36 3 37 4 40 46 l3 42 -40 0 c-23 0 -41 -2 -42 -5z"/>
<path d="M1272 1768 c3 -42 4 -43 40 -46 33 -3 38 0 44 22 11 47 2 61 -44 64
l-43 3 3 -43z"/>
<path d="M1392 1768 c3 -43 3 -43 43 -43 40 0 40 0 43 43 l3 42 -46 0 -46 0 3
-42z"/>
<path d="M1024 1686 c-3 -8 -4 -27 -2 -43 3 -25 7 -28 46 -31 l43 -3 -3 43
c-3 42 -4 43 -41 46 -26 2 -39 -1 -43 -12z"/>
<path d="M1149 1693 c-1 -5 -2 -24 -2 -43 -2 -34 -1 -35 41 -38 l42 -3 0 45 0
46 -40 0 c-22 0 -40 -3 -41 -7z"/>
<path d="M1277 1694 c-4 -4 -7 -25 -7 -46 l0 -39 43 3 c42 3 42 3 42 43 0 39
-1 40 -35 43 -20 2 -39 0 -43 -4z"/>
<path d="M1646 1590 c-60 -60 -117 -110 -126 -110 -9 0 -36 20 -60 45 -44 45
-75 56 -98 33 -26 -26 -11 -54 66 -131 42 -42 86 -77 96 -77 11 0 75 58 152
138 103 106 133 143 134 164 0 25 -22 48 -46 48 -5 0 -57 -49 -118 -110z m124
55 c0 -8 -54 -69 -120 -135 -104 -106 -121 -120 -139 -111 -22 12 -112 113
-106 119 2 2 23 -12 46 -32 70 -59 86 -54 207 69 58 58 106 105 108 105 2 0 4
-7 4 -15z"/>
<path d="M1567 1603 c-5 -12 -20 -32 -34 -43 -17 -13 -23 -24 -17 -30 16 -16
66 43 62 71 l-4 24 -7 -22z"/>
<path d="M1370 900 c0 -112 1 -120 19 -120 15 0 21 8 23 32 4 43 19 44 46 3
16 -25 30 -35 48 -35 l26 0 -37 51 -38 50 34 35 33 34 -26 0 c-18 0 -36 -12
-57 -37 l-30 -38 -1 73 c0 65 -2 72 -20 72 -19 0 -20 -7 -20 -120z"/>
<path d="M740 895 l0 -115 70 0 c62 0 74 3 96 25 28 28 26 60 -6 83 -18 13
-18 14 1 33 24 24 24 44 -1 69 -16 16 -33 20 -90 20 l-70 0 0 -115z m114 79
c9 -3 16 -16 16 -29 0 -23 -22 -35 -67 -35 -20 0 -23 5 -23 35 0 32 2 35 29
35 16 0 36 -3 45 -6z m24 -118 c5 -26 -24 -46 -65 -46 -31 0 -33 2 -33 36 l0
35 47 -3 c38 -2 49 -7 51 -22z"/>
<path d="M1560 895 c0 -108 1 -115 20 -115 17 0 20 7 20 50 l0 50 55 -6 c52
-6 55 -5 55 15 0 19 -5 21 -55 21 l-55 0 0 35 0 35 60 -7 c57 -5 60 -5 60 16
0 20 -5 21 -80 21 l-80 0 0 -115z"/>
<path d="M2130 975 c0 -16 -6 -25 -15 -25 -8 0 -15 -7 -15 -15 0 -8 7 -15 15
-15 12 0 15 -13 15 -58 0 -65 11 -82 52 -82 33 0 39 25 8 33 -17 4 -20 14 -20
56 0 44 3 51 20 51 11 0 20 7 20 15 0 8 -9 15 -20 15 -15 0 -20 7 -20 25 0 18
-5 25 -20 25 -15 0 -20 -7 -20 -25z"/>
<path d="M1004 946 c-35 -16 -44 -32 -44 -82 0 -49 14 -71 55 -84 66 -22 124
33 111 104 -11 59 -66 87 -122 62z m72 -50 c14 -57 -17 -103 -53 -80 -22 13
-29 70 -12 90 19 23 58 18 65 -10z"/>
<path d="M1211 949 c-35 -14 -50 -39 -51 -82 0 -50 13 -73 48 -85 67 -23 117
13 117 84 0 67 -55 107 -114 83z m70 -56 c20 -55 -26 -106 -67 -73 -17 15 -19
71 -2 88 22 22 58 14 69 -15z"/>
<path d="M1790 949 c-24 -10 -40 -26 -40 -41 0 -12 38 -10 45 2 9 15 52 12 58
-4 8 -20 -2 -26 -40 -26 -31 0 -73 -28 -73 -49 0 -45 47 -69 91 -47 16 8 29
10 29 5 0 -5 9 -9 20 -9 18 0 20 7 20 64 0 46 -5 69 -17 84 -22 26 -60 34 -93
21z m70 -97 c0 -21 -28 -44 -50 -40 -32 4 -37 26 -8 37 29 12 58 13 58 3z"/>
<path d="M1970 947 c-19 -10 -25 -20 -25 -47 0 -32 3 -35 48 -48 54 -15 65
-42 18 -42 -17 0 -33 5 -36 10 -7 12 -45 13 -45 2 0 -21 44 -47 80 -47 47 0
70 19 70 56 0 31 -14 41 -72 53 -35 8 -37 36 -4 36 14 0 28 -4 31 -10 7 -12
45 -13 45 -2 0 15 -33 40 -60 46 -14 4 -36 0 -50 -7z"/>
</g>
</svg>
